<svg width="32" height="32" viewBox="0 0 32 32" fill="none" xmlns="http://www.w3.org/2000/svg">
<path fill-rule="evenodd" clip-rule="evenodd" d="M2.66669 15.9997C2.66669 23.3635 8.63663 29.333 16 29.333C23.3634 29.333 29.3334 23.3635 29.3334 15.9997C29.3334 8.63672 23.363 2.66634 16 2.66634C8.63707 2.66634 2.66669 8.63672 2.66669 15.9997ZM4.66669 15.9997C4.66669 9.74129 9.74164 4.66634 16 4.66634C22.2584 4.66634 27.3334 9.74129 27.3334 15.9997C27.3334 22.2589 22.2589 27.333 16 27.333C9.74116 27.333 4.66669 22.2589 4.66669 15.9997ZM13.2743 20.0313C12.983 20.4221 13.0141 20.9777 13.3683 21.3335C13.758 21.7249 14.3912 21.7262 14.7825 21.3366L19.4305 16.7086L19.5279 16.5963C19.8198 16.2042 19.7874 15.6466 19.4305 15.2913L14.7825 10.6633L14.6702 10.5667C14.2781 10.2771 13.7226 10.3106 13.3683 10.6664L13.2717 10.7787C12.9821 11.1708 13.0156 11.7263 13.3714 12.0806L17.3067 16.0013L13.3714 19.9193L13.2743 20.0313Z" fill="white"/>
</svg>
