<svg width="44" height="44" viewBox="0 0 44 44" fill="none" xmlns="http://www.w3.org/2000/svg">
<g filter="url(#filter0_d)">
<path fill-rule="evenodd" clip-rule="evenodd" d="M18.1086 27.878C11.0613 27.878 5.04242 28.9432 5.04242 33.2112C5.04242 37.4774 11.0228 38.5829 18.1086 38.5829C25.1559 38.5829 31.1748 37.5159 31.1748 33.2497C31.1748 28.9835 25.1944 27.878 18.1086 27.878Z" stroke="#F27F16" stroke-width="1.5" stroke-linecap="round" stroke-linejoin="round"/>
<path fill-rule="evenodd" clip-rule="evenodd" d="M18.1086 21.7908C22.7579 21.7908 26.4832 18.0637 26.4832 13.4162C26.4832 8.76682 22.7579 5.04148 18.1086 5.04148C13.4611 5.04148 9.73389 8.76682 9.73389 13.4162C9.73389 18.0637 13.4611 21.7908 18.1086 21.7908Z" stroke="#F27F16" stroke-width="1.5" stroke-linecap="round" stroke-linejoin="round"/>
<path d="M35.2076 15.8933V23.245" stroke="#F27F16" stroke-width="1.5" stroke-linecap="round" stroke-linejoin="round"/>
<path d="M38.9584 19.569H31.46" stroke="#F27F16" stroke-width="1.5" stroke-linecap="round" stroke-linejoin="round"/>
</g>
<defs>
<filter id="filter0_d" x="-4" y="-4" width="52" height="52" filterUnits="userSpaceOnUse" color-interpolation-filters="sRGB">
<feFlood flood-opacity="0" result="BackgroundImageFix"/>
<feColorMatrix in="SourceAlpha" type="matrix" values="0 0 0 0 0 0 0 0 0 0 0 0 0 0 0 0 0 0 127 0"/>
<feOffset/>
<feGaussianBlur stdDeviation="2"/>
<feColorMatrix type="matrix" values="0 0 0 0 0.968627 0 0 0 0 0.576471 0 0 0 0 0.101961 0 0 0 1 0"/>
<feBlend mode="normal" in2="BackgroundImageFix" result="effect1_dropShadow"/>
<feBlend mode="normal" in="SourceGraphic" in2="effect1_dropShadow" result="shape"/>
</filter>
</defs>
</svg>
