<svg width="21" height="21" viewBox="0 0 21 21" fill="none" xmlns="http://www.w3.org/2000/svg">
<path d="M5.9916 10.3821C6.0968 10.5771 6.29684 10.6987 6.51441 10.6987H9.90228V17.3881C9.90228 17.7259 10.1701 18 10.5 18C10.8299 18 11.0977 17.7259 11.0977 17.3881V10.6987H14.4856C14.704 10.6987 14.904 10.5771 15.0084 10.3821C15.1144 10.1871 15.1072 9.94887 14.9917 9.7604L11.0061 3.28556C10.8961 3.1077 10.7056 3 10.5 3C10.2944 3 10.1039 3.1077 9.99393 3.28556L6.00834 9.7604C5.94777 9.85994 5.91669 9.97335 5.91669 10.0868C5.91669 10.1879 5.94219 10.2899 5.9916 10.3821Z" fill="#11CABE"/>
</svg>
