<svg width="44" height="44" viewBox="0 0 44 44" fill="none" xmlns="http://www.w3.org/2000/svg">
<circle cx="22" cy="22" r="22" fill="#7F6EE9"/>
<path d="M22.4878 5.54686V5.56248C22.5035 5.64058 22.5035 5.7343 22.5035 5.82801V17.0898C22.4878 17.1523 22.441 17.1679 22.3941 17.1992C22.0661 17.3553 21.7537 17.4959 21.4257 17.6365C20.9727 17.8396 20.5041 18.0582 20.0512 18.2613L18.4111 19.011C17.9581 19.2141 17.5052 19.4171 17.0678 19.6202C16.5367 19.8701 15.9901 20.1044 15.459 20.3543C15.006 20.5574 14.553 20.7761 14.0845 20.9791C13.7096 21.1509 13.3347 21.3071 12.9755 21.4789C12.9442 21.4946 12.913 21.5102 12.8817 21.5102C12.8661 21.5102 12.8661 21.5102 12.8505 21.4946L13.2722 20.7917C14.0845 19.4484 14.8811 18.1207 15.6933 16.7774C16.5524 15.3404 17.4271 13.9034 18.2861 12.4664C19.0828 11.1387 19.895 9.81104 20.6916 8.48336C21.2695 7.51494 21.8631 6.54652 22.441 5.5781C22.4566 5.54686 22.4722 5.53124 22.4722 5.5H22.4878C22.4722 5.51562 22.4878 5.53124 22.4878 5.54686Z" fill="#F3F3F3"/>
<path d="M32.0768 21.4945L32.0925 21.5102L29.7964 22.8691L22.5801 27.1333C22.5488 27.1489 22.5176 27.1645 22.502 27.1801C22.4551 27.1801 22.4551 27.1333 22.4551 27.1176V26.9771V17.3241C22.4551 17.2772 22.4551 17.2147 22.4707 17.1679C22.4863 17.1054 22.5332 17.121 22.5801 17.1367C22.7831 17.2304 23.0018 17.3241 23.2049 17.4178C23.814 17.699 24.4232 17.9801 25.0324 18.2456C25.5634 18.4799 26.0789 18.7299 26.6099 18.9642C27.141 19.1985 27.6721 19.4484 28.2032 19.6827C28.6561 19.8857 29.1247 20.1044 29.5777 20.3074C30.0307 20.5105 30.4993 20.7292 30.9522 20.9322C31.3115 21.0884 31.6707 21.2603 32.03 21.4164C32.03 21.4633 32.0456 21.4789 32.0768 21.4945Z" fill="#8A8DA7"/>
<path d="M22.4865 36.8799C22.4865 36.8956 22.4709 36.9112 22.4709 36.9268H22.4553C22.4553 36.8956 22.424 36.8799 22.4084 36.8487C21.44 35.4898 20.4716 34.1152 19.5031 32.7563C18.5191 31.3662 17.5194 29.9604 16.5354 28.5703C15.5826 27.227 14.6142 25.868 13.6614 24.5248C13.4115 24.1655 13.1615 23.8219 12.9116 23.4626C12.896 23.4314 12.8804 23.4158 12.8492 23.3689C12.896 23.3689 12.9273 23.4001 12.9429 23.4158C14.3018 24.2124 15.6451 25.009 17.004 25.8056C18.566 26.7271 20.1123 27.6487 21.6743 28.5703L22.4709 29.0388C22.5021 29.0701 22.5021 29.1013 22.5021 29.1326V36.6613C22.5021 36.7394 22.5021 36.8175 22.4865 36.8799Z" fill="#F3F3F3"/>
<path d="M12.8334 21.5258V21.5102C13.3333 21.2916 13.8175 21.0573 14.3173 20.8386C14.9577 20.5418 15.5981 20.2607 16.2385 19.9639C16.7227 19.7452 17.2226 19.5109 17.7068 19.2922C18.4253 18.9642 19.1282 18.6518 19.8467 18.3238C20.3309 18.1051 20.8151 17.8865 21.3149 17.6522C21.6586 17.496 22.0178 17.3398 22.3614 17.1836C22.3927 17.168 22.4395 17.1523 22.4552 17.1211C22.4708 17.1211 22.4708 17.1367 22.4552 17.1523V27.0708C22.4552 27.1177 22.4395 27.1646 22.4708 27.1958C22.4395 27.2427 22.4083 27.1958 22.3927 27.1802C22.2521 27.1021 22.1115 27.024 21.971 26.9303C18.9564 25.1496 15.9261 23.3534 12.9115 21.5727C12.8959 21.5571 12.8647 21.5415 12.8334 21.5258Z" fill="#C5C8D9"/>
<path d="M32.0457 23.3689H32.0613C32.0613 23.4001 32.0301 23.4314 32.0145 23.4626C29.1404 27.5081 26.2664 31.5692 23.3924 35.6147C23.0956 36.0365 22.7832 36.4582 22.4864 36.8799C22.4708 36.8643 22.4708 36.8487 22.4708 36.8331V36.7394V29.1638V29.0232C23.1269 28.6327 23.7673 28.2579 24.4233 27.8674C26.9537 26.3679 29.4841 24.884 31.9988 23.3845C32.0145 23.4001 32.0301 23.3845 32.0457 23.3689Z" fill="#C5C8D9"/>
<path d="M22.4708 17.1523V17.1211V17.0274V5.68746C22.4708 5.6406 22.4552 5.60936 22.4865 5.5625C25.6573 10.8263 28.8281 16.0746 31.9832 21.3384C32.0145 21.3853 32.0613 21.4477 32.077 21.5102C31.8583 21.4321 31.6552 21.3228 31.4522 21.2291C31.2023 21.1197 30.9367 20.9948 30.6868 20.8854C30.5306 20.8073 30.3588 20.7448 30.2026 20.6667C29.9371 20.5418 29.6715 20.4325 29.406 20.3075C29.2498 20.245 29.0936 20.1669 28.9374 20.0888L27.9065 19.6202C27.7347 19.5421 27.5629 19.464 27.3754 19.3859L26.6257 19.0579C26.4695 18.9954 26.3133 18.9173 26.1571 18.8392L25.1262 18.3707C24.9544 18.2926 24.7826 18.2145 24.5951 18.1364L23.8454 17.8083C23.6736 17.7302 23.5174 17.6521 23.3455 17.574C23.0488 17.4335 22.752 17.2929 22.4396 17.1679C22.4865 17.1523 22.4708 17.1523 22.4708 17.1523Z" fill="#C5C8D9"/>
</svg>
