<svg width="19" height="22" viewBox="0 0 19 22" fill="none" xmlns="http://www.w3.org/2000/svg">
<path d="M0.88425 10.192H2.64825V11.928H0.88425V13.776H2.76025C3.32025 18.172 6.14825 21.308 10.9363 21.308C15.6403 21.308 18.3283 18.62 18.8603 14.028H14.6883C14.3523 16.52 13.1763 17.78 11.0203 17.78C8.72425 17.78 7.52025 16.324 7.15625 13.776H11.3843L11.7203 11.928H7.07225V10.192H12.0283L12.3643 8.344H7.15625C7.52025 5.796 8.75225 4.144 10.9923 4.144C12.9523 4.144 14.1843 5.348 14.4643 7.532H18.6923C18.2443 3.108 15.5003 0.699999 11.0203 0.699999C6.37225 0.699999 3.34825 3.92 2.76025 8.344H0.88425V10.192Z" fill="white"/>
<defs>
<linearGradient id="paint0_linear" x1="10" y1="27" x2="10" y2="-4" gradientUnits="userSpaceOnUse">
<stop stop-color="#6277A6"/>
<stop offset="1" stop-color="#7E97CD"/>
</linearGradient>
</defs>
</svg>
