<svg width="44" height="52" viewBox="0 0 44 52" fill="none" xmlns="http://www.w3.org/2000/svg">
<g filter="url(#filter0_d)">
<path d="M26.0332 7.66669H21.6332C21.0253 7.66669 20.5332 8.15876 20.5332 8.76669C20.5332 9.37461 21.0253 9.86669 21.6332 9.86669H26.0332C26.6411 9.86669 27.1332 9.37461 27.1332 8.76669C27.1332 8.15876 26.6411 7.66669 26.0332 7.66669Z" fill="#BD47FB"/>
<path d="M30.8001 4H13.2001C10.7743 4 8.80011 5.97416 8.80011 8.4V43.6C8.80011 46.0258 10.7743 48 13.2001 48H30.8001C33.226 48 35.2001 46.0258 35.2001 43.6V8.4C35.2001 5.97416 33.226 4 30.8001 4ZM33.0001 43.6C33.0001 44.8152 32.0153 45.8 30.8001 45.8H13.2001C11.985 45.8 11.0001 44.8152 11.0001 43.6V8.4C11.0001 7.18484 11.985 6.2 13.2001 6.2H30.8001C32.0153 6.2 33.0001 7.18484 33.0001 8.4V43.6Z" fill="#BD47FB"/>
<path d="M22.0001 44.3333C23.2151 44.3333 24.2001 43.3483 24.2001 42.1333C24.2001 40.9183 23.2151 39.9333 22.0001 39.9333C20.7851 39.9333 19.8001 40.9183 19.8001 42.1333C19.8001 43.3483 20.7851 44.3333 22.0001 44.3333Z" fill="#BD47FB"/>
<path d="M17.9665 9.86669C18.574 9.86669 19.0665 9.3742 19.0665 8.76669C19.0665 8.15917 18.574 7.66669 17.9665 7.66669C17.359 7.66669 16.8665 8.15917 16.8665 8.76669C16.8665 9.3742 17.359 9.86669 17.9665 9.86669Z" fill="#BD47FB"/>
</g>
<defs>
<filter id="filter0_d" x="-4" y="0" width="52" height="52" filterUnits="userSpaceOnUse" color-interpolation-filters="sRGB">
<feFlood flood-opacity="0" result="BackgroundImageFix"/>
<feColorMatrix in="SourceAlpha" type="matrix" values="0 0 0 0 0 0 0 0 0 0 0 0 0 0 0 0 0 0 127 0"/>
<feOffset/>
<feGaussianBlur stdDeviation="2"/>
<feColorMatrix type="matrix" values="0 0 0 0 0.604863 0 0 0 0 0.101961 0 0 0 0 1 0 0 0 1 0"/>
<feBlend mode="normal" in2="BackgroundImageFix" result="effect1_dropShadow"/>
<feBlend mode="normal" in="SourceGraphic" in2="effect1_dropShadow" result="shape"/>
</filter>
</defs>
</svg>
