<svg width="64" height="64" viewBox="0 0 64 64" fill="none" xmlns="http://www.w3.org/2000/svg">
<path fill-rule="evenodd" clip-rule="evenodd" d="M5.33331 31.9995C5.33331 46.7272 17.2732 58.6661 32 58.6661C46.7268 58.6661 58.6666 46.7272 58.6666 31.9995C58.6666 17.2736 46.7259 5.3328 32 5.3328C17.2741 5.3328 5.33331 17.2736 5.33331 31.9995ZM9.33331 31.9995C9.33331 19.4827 19.4832 9.3328 32 9.3328C44.5167 9.3328 54.6666 19.4827 54.6666 31.9995C54.6666 44.5179 44.5177 54.6661 32 54.6661C19.4823 54.6661 9.33331 44.5179 9.33331 31.9995ZM26.5486 40.0626C25.9659 40.8444 26.0281 41.9556 26.7366 42.6672C27.5159 43.4499 28.7823 43.4526 29.565 42.6733L38.861 33.4173L39.0557 33.1927C39.6396 32.4085 39.5748 31.2934 38.861 30.5827L29.565 21.3267L29.3403 21.1336C28.5561 20.5543 27.4451 20.6213 26.7366 21.3328L26.5434 21.5576C25.9642 22.3418 26.0311 23.4528 26.7427 24.1613L34.6133 32.0027L26.7427 39.8387L26.5486 40.0626Z" fill="white"/>
<line x1="28" y1="23" x2="28" y2="42" stroke="white" stroke-width="4"/>
</svg>
