<svg width="17" height="20" viewBox="0 0 17 20" fill="none" xmlns="http://www.w3.org/2000/svg">
<path d="M2.62547 20V17.004H0.385469V14.288H2.62547V12.104H0.385469V8.632H2.62547V0.0079987H9.00947C11.5855 0.0079987 13.4615 0.530665 14.6375 1.576C15.8321 2.62133 16.4295 4.05867 16.4295 5.888C16.4295 6.97067 16.1868 7.988 15.7015 8.94C15.2161 9.892 14.4041 10.6573 13.2655 11.236C12.1455 11.8147 10.6148 12.104 8.67347 12.104H6.85347V14.288H11.1655V17.004H6.85347V20H2.62547ZM8.25347 8.632C9.44814 8.632 10.3908 8.42667 11.0815 8.016C11.7908 7.60533 12.1455 6.94267 12.1455 6.028C12.1455 4.32933 11.0255 3.48 8.78547 3.48H6.85347V8.632H8.25347Z" fill="white"/>
<defs>
<linearGradient id="paint0_linear" x1="8.5" y1="26" x2="8.5" y2="-5" gradientUnits="userSpaceOnUse">
<stop stop-color="#6277A6"/>
<stop offset="1" stop-color="#7E97CD"/>
</linearGradient>
</defs>
</svg>
