<svg width="44" height="44" viewBox="0 0 44 44" fill="none" xmlns="http://www.w3.org/2000/svg">
<path fill-rule="evenodd" clip-rule="evenodd" d="M34.5858 9.39366C35.387 9.67416 35.9223 10.4295 35.9223 11.2783V23.6955C35.9223 27.166 34.661 30.4788 32.4335 33.0455C31.3133 34.338 29.8962 35.3445 28.391 36.1585L21.868 39.6822L15.334 36.1567C13.827 35.3427 12.408 34.338 11.286 33.0437C9.05666 30.477 7.79166 27.1623 7.79166 23.6882V11.2783C7.79166 10.4295 8.32699 9.67416 9.12816 9.39366L21.1952 5.15316C21.6242 5.00282 22.0917 5.00282 22.5188 5.15316L34.5858 9.39366Z" stroke="#11CABE" stroke-width="1.5" stroke-linecap="round" stroke-linejoin="round"/>
<path d="M17.0912 21.8491L20.5599 25.3196L27.7062 18.1733" stroke="#11CABE" stroke-width="1.5" stroke-linecap="round" stroke-linejoin="round"/>
</svg>
