<svg width="44" height="44" viewBox="0 0 44 44" fill="none" xmlns="http://www.w3.org/2000/svg">
<path d="M43.9606 21.9924C43.9606 34.0825 34.1602 43.8829 22.07 43.8829C9.98033 43.8829 0.179495 34.0825 0.179495 21.9924C0.179495 9.90242 9.98033 0.101807 22.07 0.101807C34.1602 0.101807 43.9606 9.90242 43.9606 21.9924Z" fill="#1BA27A"/>
<path d="M32.3439 11.1404H11.6158V16.1446H19.4778V23.4998H24.4819V16.1446H32.3439V11.1404Z" fill="white"/>
<path d="M22.0273 24.2832C15.5237 24.2832 10.2509 23.2539 10.2509 21.984C10.2509 20.7144 15.5234 19.6849 22.0273 19.6849C28.531 19.6849 33.8036 20.7144 33.8036 21.984C33.8036 23.2539 28.531 24.2832 22.0273 24.2832ZM35.2503 22.3673C35.2503 20.7299 29.3303 19.4027 22.0273 19.4027C14.7247 19.4027 8.80414 20.7299 8.80414 22.3673C8.80414 23.8093 13.3948 25.0106 19.478 25.2768V35.8355H24.4817V25.281C30.6117 25.0231 35.2503 23.8167 35.2503 22.3673Z" fill="white"/>
</svg>
