<svg width="21" height="24" viewBox="0 0 21 24" fill="none" xmlns="http://www.w3.org/2000/svg">
<g clip-path="url(#clip0)">
<path d="M21.42 4.31496C20.588 4.8084 19.6654 5.16667 18.6838 5.36089C17.8977 4.52231 16.7783 4 15.5394 4C13.1602 4 11.231 5.92913 11.231 8.30709C11.231 8.64436 11.2691 8.97375 11.3426 9.28871C7.76253 9.10892 4.58799 7.3937 2.46332 4.7874C2.09192 5.42257 1.88064 6.16273 1.88064 6.95276C1.88064 8.44751 2.64179 9.7664 3.79665 10.5381C3.09061 10.5144 2.42657 10.3202 1.84521 9.99738C1.84521 10.0157 1.84521 10.0328 1.84521 10.0512C1.84521 12.1378 3.33077 13.8793 5.30059 14.2756C4.93969 14.374 4.55912 14.4265 4.16542 14.4265C3.8872 14.4265 3.61817 14.399 3.35439 14.3491C3.90295 16.0604 5.4935 17.3058 7.37801 17.3412C5.90426 18.4961 4.04599 19.185 2.02762 19.185C1.67985 19.185 1.33733 19.164 1.00006 19.1247C2.90689 20.3465 5.17067 21.0604 7.60374 21.0604C15.5276 21.0604 19.861 14.4961 19.861 8.80315C19.861 8.6168 19.857 8.43045 19.8478 8.24541C20.6917 7.64042 21.4226 6.88189 22.0001 6.01837C21.2271 6.36089 20.3977 6.59318 19.5263 6.69685C20.4161 6.16404 21.0985 5.3189 21.42 4.31496Z" fill="#5D6588"/>
</g>
<defs>
<clipPath id="clip0">
<rect width="20" height="24" fill="white" transform="translate(0.576477)"/>
</clipPath>
</defs>
</svg>
