<svg width="17" height="27" viewBox="0 0 17 27" fill="none" xmlns="http://www.w3.org/2000/svg">
<path d="M8.08092 26.78H10.0689V23.28C14.4929 22.972 16.8449 20.284 16.8449 16.924C16.8449 13.032 14.2689 11.632 10.0689 10.988V5.976C11.5529 6.256 12.2529 7.152 12.5049 8.608H16.5089C16.1729 4.996 13.8769 3.092 10.0689 2.756V0.235999H8.08092V2.728C4.07692 3.008 1.50092 5.388 1.50092 8.608C1.50092 12.304 3.62892 13.928 8.08092 14.628V20.032C5.86892 19.696 5.28092 18.38 5.08492 16.756H0.940922C1.16492 20.284 3.23692 22.944 8.08092 23.28V26.78ZM12.7009 17.4C12.7009 18.772 11.6929 19.752 10.0689 20.032V14.936C12.1409 15.384 12.7009 16.056 12.7009 17.4ZM5.53292 8.244C5.53292 7.068 6.42892 6.144 8.08092 5.92V10.652C6.00892 10.232 5.53292 9.532 5.53292 8.244Z" fill="white"/>
<defs>
<linearGradient id="paint0_linear" x1="9" y1="29" x2="9" y2="-2" gradientUnits="userSpaceOnUse">
<stop stop-color="#6277A6"/>
<stop offset="1" stop-color="#7E97CD"/>
</linearGradient>
</defs>
</svg>
