<svg width="44" height="44" viewBox="0 0 44 44" fill="none" xmlns="http://www.w3.org/2000/svg">
<path d="M32.2573 20.0417C35.1949 20.0417 37.5779 17.6604 37.5779 14.7228C37.5779 11.7852 35.1949 9.40381 32.2573 9.40381" stroke="#BD47FB" stroke-width="1.5" stroke-linecap="round" stroke-linejoin="round"/>
<path d="M34.7033 25.822C35.5806 25.8825 36.4528 26.0069 37.3116 26.2001C38.5048 26.4337 39.9399 26.9228 40.4508 27.9933C40.7769 28.679 40.7769 29.4772 40.4508 30.1646C39.9416 31.2351 38.5048 31.7225 37.3116 31.9678" stroke="#BD47FB" stroke-width="1.5" stroke-linecap="round" stroke-linejoin="round"/>
<path d="M11.5317 20.0417C8.59406 20.0417 6.21103 17.6604 6.21103 14.7228C6.21103 11.7852 8.59406 9.40381 11.5317 9.40381" stroke="#BD47FB" stroke-width="1.5" stroke-linecap="round" stroke-linejoin="round"/>
<path d="M9.08563 25.822C8.20838 25.8825 7.33617 26.0069 6.4774 26.2001C5.28421 26.4337 3.84901 26.9228 3.33981 27.9933C3.0121 28.679 3.0121 29.4772 3.33981 30.1646C3.84733 31.2351 5.28421 31.7225 6.4774 31.9678" stroke="#BD47FB" stroke-width="1.5" stroke-linecap="round" stroke-linejoin="round"/>
<path fill-rule="evenodd" clip-rule="evenodd" d="M21.8859 26.9675C27.8384 26.9675 32.9238 27.8682 32.9238 31.473C32.9238 35.0762 27.872 36.0105 21.8859 36.0105C15.9317 36.0105 10.848 35.1098 10.848 31.505C10.848 27.9002 15.8998 26.9675 21.8859 26.9675Z" stroke="#BD47FB" stroke-width="1.5" stroke-linecap="round" stroke-linejoin="round"/>
<path fill-rule="evenodd" clip-rule="evenodd" d="M21.8859 21.8257C17.9601 21.8257 14.8125 18.678 14.8125 14.7505C14.8125 10.8247 17.9601 7.67706 21.8859 7.67706C25.8117 7.67706 28.9594 10.8247 28.9594 14.7505C28.9594 18.678 25.8117 21.8257 21.8859 21.8257Z" stroke="#BD47FB" stroke-width="1.5" stroke-linecap="round" stroke-linejoin="round"/>
</svg>
