<svg width="549" height="668" viewBox="0 0 549 668" fill="none" xmlns="http://www.w3.org/2000/svg">
<path d="M524.179 506.111C524.217 507.212 524.243 508.316 524.257 509.424L523.433 509.434C523.442 510.123 523.446 510.812 523.446 511.503C523.446 512.193 523.442 512.882 523.433 513.571L524.257 513.582C524.243 514.689 524.217 515.793 524.179 516.894L523.355 516.867C523.309 518.241 523.245 519.612 523.162 520.977L523.985 521.027C523.919 522.132 523.841 523.235 523.752 524.334L522.93 524.268C522.819 525.638 522.69 527.003 522.543 528.363L523.363 528.451C523.244 529.553 523.114 530.651 522.972 531.745L522.155 531.64C521.979 533.002 521.785 534.359 521.574 535.71L522.388 535.838C522.217 536.932 522.035 538.023 521.841 539.111L521.03 538.966C520.789 540.318 520.531 541.664 520.255 543.004L521.062 543.17C520.839 544.255 520.605 545.336 520.359 546.413L519.556 546.23C519.25 547.569 518.928 548.902 518.588 550.227L519.386 550.432C519.112 551.504 518.826 552.573 518.529 553.637L517.735 553.415C517.366 554.738 516.979 556.054 516.576 557.363L517.364 557.605C517.038 558.663 516.701 559.716 516.354 560.764L515.571 560.504C515.139 561.808 514.69 563.104 514.224 564.393L514.999 564.673C514.623 565.713 514.237 566.748 513.839 567.778L513.07 567.482C512.576 568.763 512.065 570.037 511.537 571.302L512.298 571.619C511.873 572.64 511.437 573.655 510.991 574.664L510.237 574.331C509.682 575.588 509.11 576.835 508.523 578.074L509.268 578.428C508.794 579.426 508.31 580.419 507.816 581.406L507.079 581.037C506.464 582.266 505.834 583.485 505.187 584.695L505.915 585.083C505.394 586.058 504.863 587.026 504.323 587.989L503.604 587.585C502.931 588.783 502.243 589.97 501.54 591.148L502.248 591.571C501.681 592.519 501.105 593.462 500.519 594.397L499.821 593.96C499.092 595.124 498.348 596.278 497.589 597.421L498.276 597.877C497.665 598.797 497.045 599.711 496.415 600.617L495.738 600.147C494.955 601.275 494.157 602.392 493.345 603.499L494.009 603.986C493.355 604.877 492.692 605.76 492.02 606.636L491.366 606.134C490.53 607.223 489.68 608.302 488.816 609.368L489.457 609.887C488.762 610.745 488.058 611.596 487.345 612.439L486.716 611.907C485.829 612.955 484.929 613.992 484.015 615.017L484.631 615.565C483.896 616.389 483.152 617.206 482.4 618.014L481.797 617.453C480.862 618.458 479.913 619.451 478.952 620.432L479.541 621.009C478.768 621.797 477.987 622.577 477.197 623.349L476.621 622.76C475.64 623.72 474.645 624.667 473.639 625.601L474.2 626.205C473.39 626.956 472.573 627.699 471.748 628.433L471.2 627.817C470.174 628.729 469.137 629.628 468.087 630.514L468.618 631.144C467.775 631.855 466.923 632.558 466.064 633.252L465.546 632.611C464.478 633.474 463.399 634.323 462.309 635.158L462.81 635.812C461.933 636.483 461.049 637.145 460.158 637.798L459.671 637.133C458.564 637.944 457.446 638.741 456.317 639.523L456.786 640.2C455.879 640.829 454.965 641.448 454.044 642.058L453.589 641.371C452.445 642.128 451.29 642.871 450.125 643.599L450.562 644.298C449.626 644.882 448.683 645.458 447.734 646.023L447.312 645.315C446.133 646.017 444.945 646.704 443.746 647.375L444.149 648.094C443.187 648.634 442.218 649.164 441.242 649.683L440.855 648.956C439.644 649.601 438.424 650.23 437.195 650.844L437.564 651.581C436.576 652.074 435.583 652.557 434.584 653.03L434.231 652.285C432.992 652.871 431.743 653.441 430.486 653.996L430.819 654.75C429.809 655.195 428.794 655.63 427.773 656.055L427.456 655.293C426.191 655.82 424.917 656.33 423.634 656.823L423.93 657.592C422.9 657.989 421.865 658.375 420.824 658.75L420.545 657.975C419.256 658.439 417.959 658.888 416.655 659.319L416.914 660.102C415.866 660.449 414.813 660.785 413.755 661.11L413.513 660.322C412.204 660.724 410.888 661.109 409.564 661.478L409.785 662.272C408.721 662.568 407.653 662.854 406.58 663.128L406.376 662.329C405.05 662.668 403.717 662.99 402.378 663.295L402.561 664.098C401.484 664.343 400.403 664.577 399.317 664.8L399.152 663.993C397.812 664.267 396.466 664.525 395.113 664.765L395.258 665.577C394.17 665.77 393.079 665.952 391.984 666.123L391.857 665.308C390.506 665.519 389.149 665.712 387.787 665.888L387.892 666.706C386.797 666.847 385.699 666.977 384.597 667.095L384.509 666.275C383.15 666.422 381.784 666.55 380.414 666.661L380.481 667.483C379.381 667.572 378.279 667.65 377.173 667.716L377.124 666.893C375.758 666.975 374.388 667.039 373.013 667.086L373.041 667.91C371.939 667.947 370.835 667.973 369.728 667.987L369.717 667.163C369.029 667.172 368.339 667.176 367.649 667.176C366.958 667.176 366.269 667.172 365.581 667.163L365.57 667.987C364.463 667.973 363.358 667.947 362.257 667.91L362.285 667.086C360.91 667.039 359.54 666.975 358.174 666.893L358.125 667.716C357.019 667.65 355.916 667.572 354.817 667.483L354.884 666.661C353.513 666.55 352.148 666.422 350.789 666.275L350.701 667.095C349.599 666.977 348.501 666.847 347.406 666.706L347.511 665.888C346.149 665.712 344.792 665.519 343.44 665.308L343.313 666.123C342.219 665.952 341.127 665.77 340.04 665.577L340.184 664.765C338.832 664.525 337.486 664.267 336.146 663.993L335.981 664.8C334.895 664.577 333.814 664.343 332.737 664.098L332.92 663.295C331.58 662.99 330.248 662.668 328.922 662.329L328.718 663.128C327.645 662.854 326.576 662.568 325.513 662.272L325.734 661.478C324.41 661.109 323.094 660.724 321.785 660.322L321.543 661.11C320.485 660.785 319.432 660.449 318.384 660.102L318.643 659.319C317.339 658.888 316.042 658.439 314.753 657.975L314.473 658.75C313.433 658.375 312.398 657.989 311.367 657.592L311.664 656.823C310.381 656.33 309.107 655.82 307.842 655.293L307.525 656.055C306.504 655.63 305.489 655.195 304.479 654.75L304.812 653.996C303.555 653.441 302.306 652.871 301.067 652.285L300.714 653.03C299.715 652.557 298.722 652.074 297.734 651.581L298.103 650.844C296.873 650.23 295.654 649.601 294.443 648.956L294.056 649.683C293.08 649.164 292.111 648.634 291.148 648.094L291.551 647.375C290.353 646.704 289.164 646.017 287.986 645.315L287.564 646.023C286.615 645.458 285.672 644.882 284.736 644.298L285.173 643.599C284.008 642.871 282.853 642.128 281.709 641.371L281.254 642.058C280.333 641.448 279.419 640.829 278.511 640.2L278.981 639.523C277.852 638.741 276.734 637.944 275.627 637.133L275.14 637.798C274.249 637.145 273.365 636.483 272.488 635.812L272.989 635.158C271.899 634.323 270.819 633.474 269.752 632.611L269.234 633.253C268.375 632.558 267.523 631.855 266.68 631.144L267.211 630.514C266.161 629.628 265.124 628.729 264.098 627.817L263.55 628.433C262.725 627.699 261.908 626.956 261.098 626.205L261.659 625.601C260.653 624.667 259.658 623.72 258.677 622.76L258.1 623.349C257.311 622.577 256.53 621.797 255.757 621.009L256.346 620.432C255.384 619.451 254.436 618.458 253.501 617.453L252.897 618.014C252.146 617.206 251.402 616.389 250.667 615.565L251.283 615.017C250.369 613.992 249.469 612.955 248.582 611.907L247.953 612.439C247.24 611.596 246.536 610.745 245.841 609.887L246.481 609.368C245.618 608.302 244.767 607.223 243.931 606.134L243.277 606.636C242.606 605.76 241.943 604.877 241.289 603.986L241.953 603.499C241.141 602.392 240.343 601.275 239.56 600.147L238.883 600.617C238.253 599.711 237.633 598.797 237.022 597.877L237.709 597.421C236.95 596.278 236.206 595.124 235.477 593.96L234.779 594.397C234.193 593.462 233.617 592.519 233.05 591.571L233.758 591.148C233.055 589.97 232.367 588.783 231.694 587.585L230.975 587.989C230.435 587.026 229.904 586.058 229.383 585.083L230.11 584.695C229.464 583.485 228.834 582.266 228.219 581.037L227.482 581.406C226.988 580.419 226.504 579.426 226.03 578.428L226.775 578.074C226.188 576.836 225.616 575.588 225.061 574.331L224.307 574.664C223.861 573.655 223.425 572.64 223 571.619L223.761 571.302C223.233 570.037 222.722 568.763 222.228 567.482L221.459 567.778C221.061 566.748 220.675 565.713 220.299 564.673L221.074 564.393C220.608 563.104 220.159 561.808 219.727 560.504L218.944 560.764C218.597 559.716 218.26 558.663 217.934 557.605L218.722 557.363C218.319 556.054 217.932 554.738 217.563 553.415L216.769 553.637C216.472 552.573 216.186 551.504 215.911 550.432L216.71 550.227C216.37 548.902 216.048 547.569 215.742 546.23L214.939 546.413C214.693 545.336 214.459 544.255 214.236 543.17L215.043 543.004C214.767 541.664 214.509 540.318 214.268 538.966L213.457 539.111C213.263 538.023 213.081 536.932 212.91 535.838L213.724 535.71C213.513 534.359 213.319 533.002 213.143 531.64L212.326 531.745C212.184 530.651 212.054 529.553 211.935 528.451L212.755 528.363C212.608 527.003 212.479 525.638 212.368 524.268L211.546 524.334C211.457 523.235 211.379 522.132 211.313 521.027L212.135 520.977C212.053 519.612 211.989 518.241 211.942 516.867L211.119 516.894C211.081 515.793 211.055 514.689 211.041 513.582L211.865 513.571C211.856 512.882 211.852 512.193 211.852 511.503C211.852 510.812 211.856 510.123 211.865 509.434L211.041 509.424C211.055 508.316 211.081 507.212 211.119 506.111L211.942 506.139C211.989 504.764 212.053 503.393 212.135 502.028L211.313 501.978C211.379 500.873 211.457 499.77 211.546 498.671L212.368 498.737C212.479 497.367 212.608 496.002 212.755 494.643L211.935 494.554C212.054 493.453 212.184 492.354 212.326 491.26L213.143 491.365C213.319 490.003 213.513 488.646 213.724 487.295L212.91 487.167C213.081 486.073 213.263 484.982 213.457 483.895L214.268 484.039C214.509 482.687 214.767 481.341 215.043 480.001L214.236 479.835C214.459 478.75 214.693 477.669 214.939 476.592L215.742 476.775C216.048 475.436 216.37 474.104 216.71 472.778L215.911 472.573C216.186 471.501 216.472 470.432 216.769 469.369L217.563 469.59C217.932 468.267 218.319 466.951 218.722 465.642L217.934 465.4C218.26 464.342 218.597 463.289 218.944 462.241L219.727 462.501C220.159 461.197 220.608 459.901 221.074 458.612L220.299 458.332C220.675 457.292 221.061 456.257 221.459 455.227L222.228 455.524C222.722 454.242 223.233 452.968 223.761 451.703L223 451.386C223.425 450.365 223.861 449.35 224.307 448.341L225.061 448.674C225.616 447.417 226.188 446.17 226.775 444.931L226.03 444.578C226.504 443.579 226.988 442.586 227.482 441.599L228.219 441.968C228.834 440.739 229.464 439.52 230.11 438.31L229.383 437.922C229.904 436.947 230.435 435.979 230.975 435.017L231.694 435.42C232.367 434.223 233.055 433.035 233.758 431.857L233.05 431.434C233.617 430.486 234.193 429.544 234.778 428.608L235.477 429.046C236.206 427.881 236.95 426.728 237.709 425.584L237.022 425.128C237.633 424.208 238.253 423.294 238.883 422.388L239.56 422.858C240.343 421.73 241.141 420.613 241.953 419.507L241.289 419.019C241.943 418.128 242.605 417.245 243.277 416.37L243.931 416.871C244.767 415.782 245.618 414.704 246.481 413.637L245.841 413.118C246.536 412.26 247.24 411.409 247.953 410.566L248.582 411.099C249.469 410.05 250.369 409.013 251.283 407.988L250.667 407.44C251.402 406.616 252.146 405.799 252.897 404.991L253.501 405.552C254.436 404.547 255.384 403.554 256.346 402.573L255.757 401.996C256.53 401.208 257.311 400.428 258.1 399.656L258.677 400.245C259.658 399.285 260.653 398.338 261.659 397.404L261.098 396.8C261.908 396.049 262.725 395.306 263.55 394.572L264.098 395.188C265.124 394.276 266.161 393.377 267.211 392.492L266.68 391.861C267.523 391.15 268.375 390.447 269.234 389.753L269.752 390.394C270.819 389.531 271.899 388.682 272.989 387.847L272.488 387.193C273.365 386.522 274.249 385.86 275.14 385.207L275.627 385.872C276.734 385.061 277.852 384.265 278.981 383.482L278.511 382.805C279.419 382.176 280.333 381.557 281.254 380.947L281.709 381.635C282.853 380.877 284.008 380.134 285.173 379.407L284.736 378.707C285.672 378.123 286.615 377.548 287.564 376.982L287.986 377.69C289.164 376.988 290.353 376.301 291.551 375.63L291.148 374.911C292.111 374.371 293.08 373.842 294.056 373.322L294.443 374.049C295.654 373.404 296.873 372.775 298.103 372.161L297.734 371.424C298.722 370.931 299.715 370.448 300.714 369.975L301.067 370.72C302.306 370.134 303.555 369.564 304.812 369.009L304.479 368.255C305.489 367.81 306.504 367.375 307.525 366.95L307.842 367.712C309.107 367.185 310.381 366.675 311.664 366.182L311.367 365.413C312.398 365.016 313.433 364.63 314.473 364.255L314.753 365.03C316.042 364.566 317.339 364.117 318.643 363.686L318.384 362.903C319.432 362.557 320.485 362.221 321.543 361.895L321.785 362.683C323.094 362.281 324.41 361.896 325.734 361.527L325.513 360.733C326.576 360.437 327.645 360.152 328.718 359.877L328.922 360.676C330.248 360.337 331.58 360.015 332.92 359.711L332.737 358.907C333.814 358.662 334.895 358.428 335.981 358.205L336.146 359.013C337.486 358.738 338.832 358.48 340.184 358.24L340.04 357.428C341.127 357.235 342.219 357.053 343.313 356.882L343.44 357.697C344.792 357.486 346.149 357.293 347.511 357.117L347.406 356.3C348.501 356.158 349.599 356.029 350.7 355.91L350.789 356.73C352.148 356.583 353.513 356.455 354.884 356.344L354.817 355.522C355.916 355.433 357.019 355.355 358.125 355.289L358.174 356.112C359.54 356.03 360.91 355.966 362.285 355.919L362.257 355.095C363.358 355.058 364.463 355.032 365.57 355.018L365.581 355.842C366.269 355.833 366.958 355.829 367.649 355.829C368.339 355.829 369.029 355.833 369.717 355.842L369.728 355.018C370.835 355.032 371.939 355.058 373.041 355.095L373.013 355.919C374.388 355.966 375.758 356.03 377.124 356.112L377.173 355.289C378.279 355.355 379.381 355.433 380.481 355.522L380.414 356.344C381.784 356.455 383.149 356.583 384.509 356.73L384.597 355.91C385.699 356.029 386.797 356.158 387.892 356.3L387.787 357.117C389.149 357.293 390.506 357.486 391.857 357.697L391.984 356.882C393.079 357.053 394.17 357.235 395.258 357.428L395.113 358.24C396.466 358.48 397.812 358.738 399.151 359.013L399.317 358.205C400.403 358.428 401.484 358.662 402.561 358.907L402.378 359.711C403.717 360.015 405.05 360.337 406.376 360.676L406.58 359.877C407.653 360.151 408.721 360.437 409.785 360.733L409.564 361.527C410.888 361.896 412.204 362.281 413.513 362.683L413.755 361.895C414.813 362.221 415.866 362.557 416.914 362.903L416.655 363.686C417.959 364.117 419.256 364.566 420.545 365.03L420.824 364.255C421.865 364.63 422.9 365.016 423.93 365.413L423.634 366.182C424.917 366.675 426.191 367.185 427.456 367.712L427.773 366.95C428.793 367.375 429.809 367.81 430.819 368.255L430.486 369.009C431.743 369.564 432.992 370.134 434.231 370.72L434.584 369.975C435.583 370.448 436.576 370.931 437.564 371.424L437.195 372.161C438.424 372.775 439.644 373.404 440.855 374.049L441.242 373.322C442.218 373.841 443.187 374.371 444.149 374.911L443.746 375.63C444.945 376.301 446.133 376.988 447.312 377.69L447.734 376.982C448.683 377.548 449.626 378.123 450.562 378.707L450.125 379.407C451.29 380.134 452.445 380.877 453.589 381.634L454.044 380.947C454.965 381.557 455.879 382.176 456.786 382.805L456.317 383.482C457.446 384.265 458.564 385.061 459.671 385.872L460.158 385.207C461.049 385.86 461.933 386.522 462.81 387.193L462.309 387.847C463.399 388.682 464.478 389.531 465.546 390.394L466.064 389.753C466.923 390.447 467.774 391.15 468.618 391.861L468.087 392.492C469.137 393.377 470.174 394.276 471.2 395.188L471.748 394.572C472.573 395.306 473.39 396.049 474.2 396.8L473.639 397.404C474.645 398.338 475.64 399.285 476.621 400.245L477.197 399.656C477.987 400.428 478.768 401.208 479.541 401.996L478.952 402.573C479.913 403.554 480.862 404.547 481.797 405.552L482.4 404.991C483.152 405.799 483.896 406.616 484.631 407.44L484.015 407.988C484.929 409.013 485.829 410.05 486.716 411.099L487.345 410.566C488.058 411.409 488.762 412.26 489.457 413.118L488.816 413.637C489.68 414.704 490.53 415.782 491.366 416.871L492.02 416.37C492.692 417.245 493.355 418.128 494.009 419.019L493.345 419.507C494.157 420.613 494.955 421.73 495.738 422.858L496.415 422.388C497.045 423.294 497.665 424.208 498.276 425.128L497.589 425.584C498.348 426.728 499.092 427.881 499.821 429.046L500.519 428.608C501.105 429.544 501.681 430.486 502.248 431.434L501.54 431.857C502.243 433.035 502.931 434.223 503.604 435.42L504.323 435.016C504.863 435.979 505.394 436.947 505.915 437.922L505.187 438.31C505.834 439.52 506.464 440.739 507.079 441.968L507.816 441.599C508.31 442.586 508.794 443.579 509.268 444.578L508.523 444.931C509.11 446.17 509.682 447.417 510.237 448.674L510.991 448.341C511.437 449.35 511.873 450.365 512.298 451.386L511.537 451.703C512.065 452.968 512.576 454.242 513.07 455.524L513.839 455.227C514.237 456.257 514.623 457.292 514.999 458.332L514.224 458.612C514.69 459.901 515.139 461.197 515.571 462.501L516.354 462.241C516.701 463.289 517.038 464.342 517.364 465.4L516.576 465.642C516.979 466.951 517.366 468.267 517.735 469.59L518.529 469.369C518.826 470.432 519.112 471.501 519.386 472.573L518.588 472.778C518.928 474.104 519.25 475.436 519.556 476.775L520.359 476.592C520.605 477.669 520.839 478.75 521.062 479.835L520.255 480.001C520.531 481.341 520.789 482.687 521.03 484.039L521.841 483.895C522.035 484.982 522.217 486.073 522.388 487.167L521.574 487.295C521.785 488.646 521.979 490.003 522.155 491.365L522.972 491.26C523.114 492.354 523.244 493.453 523.363 494.554L522.543 494.643C522.69 496.002 522.819 497.367 522.93 498.737L523.752 498.671C523.841 499.77 523.919 500.873 523.985 501.978L523.162 502.028C523.245 503.393 523.309 504.764 523.355 506.139L524.179 506.111Z" stroke="#34384C" stroke-width="1.64865" stroke-dasharray="4.12 3.3"/>
<ellipse cx="524.27" cy="493.382" rx="24.7297" ry="24.7102" fill="#34384C"/>
<g clip-path="url(#clip0)">
<path d="M523.698 511.203C533.228 511.203 540.954 503.483 540.954 493.96C540.954 484.437 533.228 476.718 523.698 476.718C514.167 476.718 506.441 484.437 506.441 493.96C506.441 503.483 514.167 511.203 523.698 511.203Z" fill="#767DFF"/>
<path fill-rule="evenodd" clip-rule="evenodd" d="M521.293 483.722H526.103C526.27 483.722 526.433 483.767 526.577 483.851C526.721 483.935 526.84 484.056 526.922 484.201L534.37 497.477C534.448 497.617 534.49 497.774 534.49 497.935C534.49 498.095 534.448 498.253 534.37 498.393L531.986 502.641C531.905 502.786 531.786 502.907 531.643 502.992C531.499 503.076 531.335 503.12 531.169 503.121H516.227C516.06 503.121 515.896 503.076 515.752 502.992C515.609 502.908 515.49 502.787 515.408 502.641L513.026 498.393C512.947 498.253 512.906 498.095 512.906 497.935C512.906 497.774 512.947 497.617 513.026 497.477L520.474 484.201C520.556 484.056 520.675 483.935 520.819 483.851C520.962 483.767 521.126 483.722 521.293 483.722ZM523.698 489.004L518.679 497.935H528.716L523.698 489.004Z" fill="white"/>
</g>
<path d="M376.634 198.023C376.668 199.132 376.691 200.243 376.704 201.357L375.88 201.367C375.888 202.06 375.892 202.754 375.892 203.448C375.892 204.143 375.888 204.837 375.88 205.53L376.704 205.54C376.691 206.653 376.668 207.765 376.634 208.874L375.81 208.849C375.768 210.23 375.71 211.607 375.637 212.98L376.46 213.024C376.4 214.138 376.33 215.25 376.249 216.358L375.427 216.298C375.327 217.677 375.211 219.052 375.079 220.422L375.899 220.501C375.793 221.609 375.676 222.715 375.548 223.817L374.729 223.723C374.571 225.098 374.396 226.469 374.206 227.834L375.022 227.948C374.868 229.048 374.705 230.145 374.531 231.239L373.717 231.11C373.499 232.478 373.266 233.842 373.017 235.2L373.828 235.349C373.628 236.44 373.418 237.528 373.197 238.613L372.389 238.449C372.114 239.807 371.822 241.159 371.515 242.506L372.319 242.689C372.072 243.773 371.815 244.852 371.548 245.927L370.748 245.729C370.414 247.072 370.065 248.409 369.701 249.74L370.496 249.958C370.203 251.03 369.899 252.099 369.586 253.163L368.795 252.93C368.405 254.256 367.999 255.576 367.578 256.889L368.363 257.141C368.024 258.2 367.674 259.255 367.316 260.306L366.535 260.039C366.089 261.347 365.627 262.647 365.151 263.941L365.924 264.226C365.539 265.27 365.145 266.309 364.741 267.344L363.973 267.045C363.47 268.332 362.953 269.612 362.421 270.885L363.182 271.203C362.753 272.229 362.315 273.249 361.867 274.265L361.113 273.933C360.555 275.198 359.983 276.456 359.397 277.705L360.143 278.056C359.671 279.061 359.19 280.062 358.699 281.057L357.96 280.693C357.349 281.933 356.723 283.166 356.084 284.39L356.814 284.771C356.3 285.755 355.777 286.734 355.244 287.707L354.521 287.311C353.857 288.525 353.18 289.73 352.488 290.926L353.202 291.339C352.646 292.3 352.082 293.255 351.508 294.205L350.802 293.779C350.088 294.963 349.36 296.138 348.618 297.303L349.313 297.746C348.717 298.683 348.112 299.614 347.499 300.539L346.812 300.083C346.048 301.235 345.27 302.377 344.48 303.51L345.156 303.982C344.521 304.893 343.877 305.797 343.224 306.696L342.557 306.211C341.745 307.329 340.92 308.438 340.083 309.536L340.738 310.036C340.065 310.919 339.383 311.796 338.693 312.666L338.047 312.154C337.188 313.236 336.318 314.309 335.434 315.37L336.068 315.898C335.358 316.751 334.639 317.599 333.913 318.439L333.289 317.9C332.386 318.945 331.47 319.98 330.543 321.004L331.154 321.557C330.408 322.38 329.655 323.196 328.894 324.005L328.293 323.44C327.347 324.446 326.388 325.441 325.418 326.425L326.005 327.004C325.225 327.795 324.438 328.578 323.644 329.354L323.068 328.764C322.08 329.73 321.08 330.684 320.069 331.626L320.631 332.229C319.819 332.986 318.999 333.736 318.173 334.477L317.622 333.864C316.594 334.787 315.556 335.697 314.506 336.596L315.042 337.222C314.198 337.945 313.348 338.659 312.491 339.366L311.966 338.729C310.901 339.608 309.824 340.474 308.738 341.327L309.247 341.975C308.374 342.661 307.494 343.339 306.608 344.009L306.111 343.351C305.009 344.184 303.897 345.004 302.775 345.811L303.257 346.48C302.355 347.128 301.448 347.768 300.534 348.4L300.065 347.722C298.929 348.507 297.784 349.279 296.628 350.039L297.081 350.727C296.154 351.337 295.22 351.938 294.28 352.53L293.841 351.833C292.672 352.57 291.494 353.293 290.308 354.003L290.731 354.71C289.779 355.28 288.821 355.84 287.857 356.392L287.447 355.677C286.249 356.364 285.041 357.037 283.824 357.696L284.217 358.421C283.242 358.949 282.262 359.468 281.276 359.978L280.897 359.246C279.67 359.881 278.435 360.502 277.192 361.109L277.554 361.85C276.557 362.336 275.555 362.814 274.548 363.282L274.2 362.535C272.949 363.117 271.689 363.684 270.421 364.238L270.751 364.993C269.734 365.437 268.712 365.872 267.684 366.297L267.369 365.536C266.095 366.063 264.813 366.577 263.523 367.075L263.821 367.844C262.784 368.245 261.743 368.636 260.698 369.018L260.415 368.243C259.121 368.716 257.819 369.174 256.51 369.617L256.775 370.397C255.723 370.753 254.667 371.1 253.606 371.436L253.357 370.651C252.043 371.068 250.722 371.47 249.395 371.857L249.626 372.648C248.561 372.959 247.491 373.26 246.418 373.551L246.202 372.755C244.871 373.116 243.533 373.462 242.189 373.792L242.386 374.593C241.31 374.858 240.23 375.112 239.146 375.357L238.964 374.553C237.617 374.858 236.264 375.146 234.905 375.42L235.068 376.228C233.983 376.446 232.894 376.655 231.802 376.853L231.655 376.042C230.296 376.289 228.932 376.52 227.563 376.735L227.691 377.55C226.597 377.722 225.5 377.884 224.4 378.036L224.287 377.22C222.921 377.408 221.55 377.581 220.175 377.739L220.268 378.558C219.166 378.684 218.06 378.8 216.952 378.905L216.873 378.085C215.503 378.216 214.129 378.331 212.749 378.43L212.808 379.252C211.7 379.332 210.589 379.401 209.475 379.461L209.431 378.637C208.058 378.71 206.68 378.768 205.299 378.809L205.324 379.633C204.215 379.667 203.104 379.69 201.99 379.703L201.98 378.878C201.287 378.886 200.593 378.89 199.899 378.89C199.204 378.89 198.51 378.886 197.817 378.878L197.807 379.703C196.694 379.69 195.582 379.667 194.473 379.633L194.498 378.809C193.117 378.768 191.74 378.71 190.366 378.637L190.323 379.461C189.209 379.401 188.097 379.332 186.989 379.252L187.048 378.43C185.669 378.331 184.294 378.216 182.924 378.085L182.845 378.905C181.737 378.8 180.631 378.684 179.529 378.558L179.623 377.739C178.247 377.581 176.876 377.408 175.51 377.22L175.397 378.036C174.297 377.884 173.2 377.722 172.106 377.55L172.234 376.735C170.865 376.52 169.501 376.289 168.142 376.042L167.995 376.853C166.903 376.655 165.815 376.446 164.73 376.228L164.892 375.42C163.533 375.146 162.18 374.858 160.833 374.553L160.652 375.357C159.568 375.112 158.488 374.858 157.412 374.593L157.608 373.792C156.264 373.462 154.927 373.116 153.595 372.755L153.379 373.551C152.306 373.26 151.237 372.959 150.172 372.648L150.402 371.857C149.075 371.47 147.754 371.068 146.44 370.651L146.191 371.436C145.13 371.1 144.074 370.753 143.022 370.397L143.287 369.617C141.978 369.174 140.677 368.716 139.382 368.243L139.099 369.018C138.054 368.636 137.013 368.245 135.976 367.844L136.274 367.075C134.985 366.577 133.703 366.063 132.428 365.536L132.113 366.297C131.086 365.872 130.063 365.437 129.046 364.993L129.376 364.238C128.108 363.684 126.849 363.117 125.597 362.535L125.25 363.282C124.242 362.814 123.24 362.336 122.243 361.85L122.605 361.109C121.362 360.502 120.127 359.881 118.9 359.246L118.521 359.978C117.536 359.468 116.555 358.949 115.58 358.421L115.973 357.696C114.757 357.037 113.549 356.364 112.35 355.677L111.94 356.392C110.976 355.84 110.019 355.28 109.066 354.71L109.49 354.003C108.303 353.293 107.125 352.57 105.957 351.833L105.517 352.53C104.577 351.938 103.644 351.337 102.716 350.727L103.169 350.039C102.014 349.279 100.868 348.507 99.732 347.722L99.2633 348.4C98.3494 347.768 97.4417 347.128 96.5405 346.48L97.0219 345.811C95.9001 345.004 94.7883 344.184 93.6866 343.351L93.1896 344.009C92.3032 343.339 91.4233 342.661 90.5501 341.975L91.0593 341.327C89.9727 340.474 88.8966 339.608 87.8309 338.729L87.3066 339.366C86.4493 338.659 85.5988 337.945 84.7552 337.222L85.2913 336.596C84.2417 335.697 83.2028 334.787 82.1749 333.864L81.6243 334.477C80.7977 333.736 79.9783 332.986 79.166 332.229L79.728 331.626C78.7172 330.684 77.7176 329.73 76.7293 328.764L76.1533 329.354C75.3589 328.578 74.5719 327.795 73.7922 327.004L74.3792 326.425C73.4091 325.441 72.4506 324.446 71.5038 323.44L70.9034 324.005C70.1425 323.196 69.3892 322.38 68.6435 321.557L69.2544 321.004C68.3269 319.98 67.4113 318.945 66.5078 317.9L65.8841 318.439C65.158 317.599 64.4397 316.751 63.7293 315.898L64.363 315.37C63.4797 314.309 62.6087 313.236 61.7503 312.154L61.1044 312.666C60.4145 311.796 59.7326 310.919 59.0589 310.036L59.7144 309.536C58.8768 308.438 58.052 307.329 57.2401 306.211L56.573 306.696C55.9207 305.797 55.2766 304.893 54.641 303.982L55.317 303.51C54.5267 302.377 53.7495 301.235 52.9855 300.083L52.2986 300.539C51.6851 299.614 51.0801 298.683 50.4838 297.746L51.1793 297.303C50.4376 296.138 49.7094 294.963 48.9948 293.779L48.2891 294.205C47.7157 293.255 47.1511 292.3 46.5953 291.339L47.309 290.926C46.6175 289.73 45.9398 288.525 45.276 287.311L44.5528 287.707C44.0206 286.734 43.4973 285.755 42.9831 284.771L43.7137 284.39C43.0741 283.166 42.4486 281.933 41.8373 280.693L41.0978 281.057C40.6075 280.062 40.1263 279.061 39.6543 278.056L40.4005 277.705C39.8142 276.456 39.2421 275.198 38.6846 273.933L37.9303 274.265C37.4826 273.249 37.0444 272.229 36.6155 271.203L37.3761 270.885C36.8441 269.612 36.3268 268.332 35.8242 267.045L35.0563 267.344C34.6524 266.309 34.258 265.27 33.8732 264.226L34.6467 263.941C34.1701 262.647 33.7084 261.347 33.2618 260.039L32.4817 260.306C32.1228 259.255 31.7735 258.2 31.434 257.141L32.219 256.889C31.7982 255.576 31.3926 254.256 31.0022 252.93L30.2114 253.163C29.8982 252.099 29.5947 251.03 29.3012 249.958L30.0963 249.74C29.732 248.409 29.3831 247.072 29.0497 245.729L28.2497 245.927C27.9827 244.852 27.7257 243.773 27.4787 242.689L28.2823 242.506C27.9752 241.159 27.6836 239.807 27.4078 238.449L26.6 238.613C26.3797 237.528 26.1695 236.44 25.9693 235.349L26.7801 235.2C26.5311 233.842 26.2978 232.478 26.0803 231.11L25.2662 231.239C25.0924 230.145 24.9288 229.048 24.7753 227.948L25.5917 227.834C25.4013 226.469 25.2265 225.098 25.0678 223.723L24.2489 223.817C24.1216 222.715 24.0046 221.609 23.8979 220.501L24.7184 220.422C24.5865 219.052 24.4703 217.677 24.3702 216.298L23.5481 216.358C23.4676 215.25 23.3974 214.138 23.3376 213.024L24.1607 212.98C24.0869 211.607 24.029 210.23 23.9872 208.849L23.1632 208.874C23.1296 207.765 23.1062 206.653 23.0932 205.54L23.9175 205.53C23.9094 204.837 23.9054 204.143 23.9054 203.448C23.9054 202.754 23.9094 202.06 23.9175 201.367L23.0932 201.357C23.1062 200.243 23.1296 199.132 23.1632 198.023L23.9872 198.048C24.029 196.667 24.0869 195.29 24.1607 193.916L23.3376 193.872C23.3974 192.758 23.4676 191.647 23.5481 190.539L24.3702 190.598C24.4703 189.219 24.5865 187.845 24.7184 186.475L23.8979 186.396C24.0046 185.287 24.1216 184.182 24.2489 183.079L25.0678 183.174C25.2265 181.799 25.4013 180.428 25.5917 179.062L24.7753 178.949C24.9288 177.848 25.0924 176.751 25.2662 175.658L26.0803 175.787C26.2978 174.418 26.5311 173.055 26.7801 171.697L25.9693 171.548C26.1695 170.457 26.3797 169.368 26.6 168.284L27.4078 168.448C27.6836 167.09 27.9752 165.737 28.2823 164.391L27.4787 164.207C27.7257 163.124 27.9827 162.045 28.2497 160.969L29.0497 161.168C29.3831 159.825 29.732 158.487 30.0963 157.156L29.3012 156.939C29.5947 155.866 29.8982 154.798 30.2114 153.734L31.0022 153.967C31.3926 152.64 31.7982 151.321 32.219 150.007L31.434 149.756C31.7735 148.696 32.1228 147.641 32.4817 146.591L33.2618 146.857C33.7084 145.55 34.1701 144.249 34.6467 142.956L33.8732 142.671C34.258 141.627 34.6524 140.587 35.0563 139.552L35.8242 139.852C36.3268 138.565 36.8441 137.284 37.3761 136.012L36.6155 135.694C37.0444 134.668 37.4827 133.647 37.9303 132.631L38.6846 132.964C39.2421 131.698 39.8142 130.441 40.4006 129.191L39.6543 128.841C40.1263 127.835 40.6075 126.835 41.0978 125.84L41.8373 126.204C42.4486 124.963 43.0741 123.731 43.7137 122.507L42.9831 122.125C43.4973 121.141 44.0206 120.163 44.5528 119.19L45.276 119.585C45.9398 118.372 46.6175 117.167 47.309 115.971L46.5953 115.558C47.1511 114.597 47.7158 113.641 48.2891 112.691L48.9948 113.117C49.7094 111.934 50.4376 110.759 51.1793 109.594L50.4838 109.151C51.0802 108.214 51.6851 107.283 52.2986 106.358L52.9855 106.814C53.7495 105.662 54.5268 104.519 55.3171 103.387L54.641 102.915C55.2767 102.004 55.9207 101.099 56.5731 100.201L57.2401 100.685C58.052 99.5672 58.8769 98.459 59.7144 97.3609L59.059 96.861C59.7327 95.9777 60.4145 95.101 61.1044 94.2309L61.7503 94.743C62.6088 93.6604 63.4797 92.5881 64.363 91.5263L63.7293 90.9991C64.4397 90.1452 65.158 89.2981 65.8842 88.4579L66.5079 88.9969C67.4113 87.9515 68.3269 86.9168 69.2544 85.8931L68.6436 85.3396C69.3892 84.5166 70.1426 83.7007 70.9035 82.8919L71.5039 83.4567C72.4506 82.4504 73.4092 81.4552 74.3792 80.4714L73.7923 79.8926C74.5719 79.1019 75.3589 78.3185 76.1533 77.5426L76.7293 78.1322C77.7176 77.1668 78.7173 76.213 79.7281 75.2708L79.166 74.6678C79.9783 73.9107 80.7978 73.1612 81.6243 72.4193L82.1749 73.0327C83.2028 72.11 84.2417 71.1993 85.2913 70.3006L84.7552 69.6744C85.5988 68.9522 86.4494 68.2377 87.3067 67.5311L87.831 68.1672C88.8966 67.289 89.9728 66.423 91.0593 65.5695L90.5501 64.9212C91.4233 64.2353 92.3032 63.5573 93.1896 62.8876L93.6866 63.5452C94.7883 62.7128 95.9002 61.8929 97.0219 61.0859L96.5405 60.4168C97.4418 59.7684 98.3494 59.1283 99.2633 58.4966L99.732 59.1747C100.868 58.3895 102.014 57.6172 103.169 56.8582L102.716 56.1693C103.644 55.5598 104.577 54.9588 105.517 54.3664L105.957 55.0637C107.125 54.3271 108.303 53.6038 109.49 52.894L109.066 52.1866C110.019 51.6172 110.976 51.0565 111.94 50.5045L112.35 51.2198C113.549 50.5331 114.757 49.8601 115.973 49.201L115.58 48.4762C116.555 47.948 117.536 47.4286 118.521 46.9183L118.9 47.6503C120.127 47.0154 121.362 46.3944 122.605 45.7876L122.243 45.0468C123.24 44.5603 124.242 44.0828 125.25 43.6145L125.597 44.362C126.849 43.78 128.108 43.2124 129.376 42.6591L129.046 41.9036C130.063 41.4596 131.086 41.0249 132.113 40.5995L132.428 41.3611C133.703 40.8333 134.985 40.3201 136.274 39.8215L135.976 39.0527C137.013 38.652 138.054 38.2607 139.099 37.879L139.382 38.6534C140.677 38.1808 141.978 37.723 143.287 37.2802L143.022 36.4994C144.074 36.1434 145.13 35.797 146.191 35.4604L146.44 36.246C147.754 35.8289 149.075 35.4267 150.402 35.0397L150.172 34.2484C151.237 33.9378 152.306 33.637 153.379 33.346L153.595 34.1416C154.927 33.7805 156.264 33.4347 157.608 33.1042L157.412 32.3037C158.488 32.0391 159.568 31.7844 160.651 31.5395L160.833 32.3436C162.18 32.0392 163.533 31.7502 164.892 31.4768L164.73 30.6687C165.815 30.4505 166.903 30.2421 167.995 30.0437L168.142 30.8548C169.501 30.608 170.865 30.3767 172.234 30.1612L172.106 29.3469C173.2 29.1748 174.297 29.0126 175.397 28.8606L175.51 29.6772C176.876 29.4884 178.247 29.3153 179.623 29.158L179.529 28.339C180.631 28.2129 181.737 28.097 182.845 27.9912L182.924 28.8118C184.294 28.6811 185.669 28.5661 187.048 28.4669L186.989 27.6447C188.097 27.5649 189.209 27.4954 190.323 27.4361L190.366 28.2593C191.739 28.1862 193.117 28.1288 194.498 28.0873L194.473 27.2634C195.582 27.2301 196.693 27.207 197.807 27.1941L197.817 28.0184C198.51 28.0103 199.204 28.0063 199.899 28.0063C200.593 28.0063 201.287 28.0103 201.98 28.0184L201.99 27.1941C203.104 27.2069 204.215 27.2301 205.324 27.2634L205.299 28.0873C206.68 28.1288 208.058 28.1862 209.431 28.2593L209.475 27.4361C210.589 27.4954 211.7 27.5649 212.808 27.6447L212.749 28.4669C214.128 28.5661 215.503 28.6811 216.873 28.8118L216.952 27.9912C218.06 28.097 219.166 28.2129 220.268 28.339L220.175 29.158C221.55 29.3153 222.921 29.4884 224.287 29.6772L224.4 28.8606C225.5 29.0126 226.597 29.1748 227.691 29.3469L227.563 30.1612C228.932 30.3767 230.296 30.608 231.655 30.8548L231.802 30.0437C232.894 30.2421 233.983 30.4504 235.068 30.6687L234.905 31.4768C236.264 31.7502 237.617 32.0392 238.964 32.3436L239.146 31.5395C240.23 31.7843 241.31 32.0391 242.386 32.3037L242.189 33.1042C243.533 33.4347 244.871 33.7805 246.202 34.1416L246.418 33.346C247.491 33.637 248.561 33.9378 249.626 34.2484L249.395 35.0397C250.722 35.4267 252.043 35.8289 253.357 36.246L253.606 35.4603C254.667 35.797 255.723 36.1434 256.775 36.4994L256.51 37.2802C257.819 37.723 259.121 38.1808 260.415 38.6534L260.698 37.879C261.743 38.2607 262.784 38.652 263.821 39.0527L263.523 39.8215C264.813 40.3201 266.095 40.8333 267.369 41.3611L267.684 40.5995C268.712 41.0249 269.734 41.4596 270.751 41.9036L270.421 42.6591C271.689 43.2124 272.949 43.78 274.2 44.362L274.548 43.6145C275.555 44.0828 276.557 44.5603 277.554 45.0468L277.192 45.7876C278.435 46.3944 279.67 47.0154 280.897 47.6503L281.276 46.9183C282.262 47.4286 283.242 47.948 284.217 48.4762L283.824 49.201C285.041 49.8601 286.249 50.5331 287.447 51.2198L287.857 50.5045C288.821 51.0565 289.779 51.6172 290.731 52.1866L290.308 52.894C291.495 53.6038 292.672 54.3271 293.841 55.0637L294.28 54.3664C295.22 54.9588 296.154 55.5598 297.081 56.1693L296.628 56.8582C297.784 57.6172 298.929 58.3895 300.065 59.1747L300.534 58.4966C301.448 59.1284 302.355 59.7685 303.257 60.4168L302.775 61.086C303.897 61.893 305.009 62.7128 306.111 63.5453L306.608 62.8876C307.494 63.5574 308.374 64.2353 309.247 64.9213L308.738 65.5695C309.824 66.423 310.901 67.289 311.966 68.1673L312.491 67.5311C313.348 68.2377 314.198 68.9522 315.042 69.6745L314.506 70.3006C315.556 71.1993 316.594 72.1101 317.622 73.0327L318.173 72.4193C319 73.1612 319.819 73.9108 320.631 74.6679L320.069 75.2709C321.08 76.213 322.08 77.1669 323.068 78.1323L323.644 77.5426C324.438 78.3186 325.225 79.1019 326.005 79.8926L325.418 80.4714C326.388 81.4552 327.347 82.4504 328.293 83.4568L328.894 82.8919C329.655 83.7007 330.408 84.5166 331.154 85.3396L330.543 85.8931C331.47 86.9168 332.386 87.9515 333.289 88.9969L333.913 88.4579C334.639 89.2981 335.358 90.1453 336.068 90.9992L335.434 91.5264C336.318 92.5881 337.189 93.6604 338.047 94.7431L338.693 94.2309C339.383 95.101 340.065 95.9778 340.738 96.861L340.083 97.3609C340.92 98.459 341.745 99.5673 342.557 100.685L343.224 100.201C343.877 101.099 344.521 102.004 345.156 102.915L344.48 103.387C345.271 104.519 346.048 105.662 346.812 106.814L347.499 106.358C348.112 107.283 348.717 108.214 349.313 109.151L348.618 109.594C349.36 110.759 350.088 111.934 350.802 113.118L351.508 112.691C352.082 113.641 352.646 114.597 353.202 115.558L352.488 115.971C353.18 117.167 353.857 118.372 354.521 119.585L355.244 119.19C355.777 120.163 356.3 121.141 356.814 122.125L356.084 122.507C356.723 123.731 357.349 124.963 357.96 126.204L358.699 125.84C359.19 126.835 359.671 127.835 360.143 128.841L359.397 129.191C359.983 130.441 360.555 131.698 361.113 132.964L361.867 132.631C362.315 133.647 362.753 134.668 363.182 135.694L362.421 136.012C362.953 137.284 363.47 138.565 363.973 139.852L364.741 139.552C365.145 140.587 365.539 141.627 365.924 142.671L365.151 142.956C365.627 144.249 366.089 145.55 366.535 146.857L367.316 146.591C367.674 147.641 368.024 148.696 368.363 149.756L367.578 150.007C367.999 151.321 368.405 152.64 368.795 153.967L369.586 153.734C369.899 154.798 370.203 155.866 370.496 156.939L369.701 157.156C370.065 158.487 370.414 159.825 370.748 161.168L371.548 160.969C371.815 162.045 372.072 163.124 372.319 164.207L371.515 164.391C371.822 165.737 372.114 167.09 372.389 168.448L373.197 168.284C373.418 169.368 373.628 170.457 373.828 171.548L373.017 171.697C373.266 173.055 373.499 174.418 373.717 175.787L374.531 175.658C374.705 176.751 374.868 177.848 375.022 178.949L374.206 179.062C374.396 180.428 374.571 181.799 374.729 183.174L375.548 183.079C375.676 184.182 375.793 185.287 375.899 186.396L375.079 186.475C375.211 187.845 375.327 189.219 375.427 190.598L376.249 190.539C376.33 191.647 376.4 192.758 376.46 193.872L375.637 193.916C375.71 195.29 375.768 196.667 375.81 198.048L376.634 198.023Z" stroke="#34384C" stroke-width="1.64865" stroke-dasharray="4.12 3.3"/>
<ellipse rx="33.987" ry="33.9686" transform="matrix(0.918456 -0.395524 0.39605 0.918229 139.467 44.6337)" fill="#34384C"/>
<g clip-path="url(#clip1)">
<path d="M162.46 41.8384C164.581 54.7578 155.811 66.9436 142.898 69.0561C129.968 71.1761 117.773 62.4133 115.659 49.5106C113.538 36.5912 122.291 24.4128 135.221 22.293C148.126 20.1634 160.339 28.9187 162.46 41.8384Z" fill="url(#paint0_linear)"/>
<path d="M148.26 38.4962C147.439 35.4223 144.569 34.8033 141.092 35.0705L140.385 30.7175L137.746 31.1483L138.443 35.3846C137.748 35.5027 137.035 35.6282 136.33 35.7706L135.625 31.5173L132.986 31.9482L133.703 36.2768C133.124 36.385 132.562 36.4858 132.017 36.5793L132.01 36.5623L128.357 37.1678L128.827 39.9895C128.827 39.9895 130.773 39.6355 130.746 39.6671C131.819 39.4875 132.268 40.0604 132.454 40.5851L133.259 45.5409C133.335 45.5286 133.427 45.5089 133.551 45.516C133.459 45.5356 133.366 45.5552 133.267 45.5579L134.4 52.4896C134.406 52.8299 134.29 53.404 133.553 53.5197C133.585 53.5464 131.634 53.8421 131.634 53.8421L131.623 57.0928L135.075 56.5338C135.72 56.4377 136.34 56.3319 136.967 56.2431L137.689 60.6301L140.328 60.1993L139.621 55.8463C140.341 55.7378 141.061 55.6294 141.74 55.5186L142.457 59.8473L145.096 59.4164L144.374 55.0294C148.788 54.0358 151.719 52.4106 151.404 48.1711C151.166 44.7654 149.336 43.517 146.708 43.3181C148.137 42.2795 148.863 40.7366 148.26 38.4962ZM146.098 48.5004C146.642 51.7742 140.95 52.3304 139.157 52.6185L138.201 46.8C139.994 46.5119 145.546 45.0686 146.098 48.5004ZM143.524 40.4751C144.01 43.4719 139.264 43.8827 137.773 44.1216L136.91 38.8474C138.401 38.6086 143.012 37.369 143.524 40.4751Z" fill="white"/>
</g>
<ellipse rx="17.7208" ry="17.7112" transform="matrix(0.918456 -0.395524 0.39605 0.918229 23.2903 203.658)" fill="#34384C"/>
<g clip-path="url(#clip2)">
<ellipse rx="12.3656" ry="12.3589" transform="matrix(0.918456 -0.395524 0.39605 0.918229 23.0782 204.2)" fill="white"/>
<path fill-rule="evenodd" clip-rule="evenodd" d="M27.973 215.548C21.7002 218.25 14.4244 215.359 11.7209 209.091C9.01749 202.823 11.9107 195.553 18.1835 192.852C24.4562 190.15 31.7321 193.041 34.4355 199.309C37.1389 205.577 34.2457 212.847 27.973 215.548ZM28.657 204.45C27.8851 202.661 26.3305 202.132 23.4417 202.629L22.0834 199.48C22.9642 199.297 23.8888 199.312 24.8821 199.533L25.1749 197.56C23.9248 197.274 22.6214 197.32 21.3948 197.694L20.9659 196.7L19.4682 197.345L19.8827 198.306C17.8021 199.398 16.868 201.255 17.6399 203.044C18.4475 204.917 20.0111 205.324 22.7963 204.872L24.1974 208.12C23.0064 208.436 21.8628 208.339 20.5523 207.999L20.101 209.982C21.6715 210.381 23.3213 210.343 24.872 209.873L25.5866 211.53L27.0843 210.885L26.3767 209.244C28.4844 208.121 29.4432 206.273 28.657 204.45ZM21.9308 202.867C20.4412 203.057 19.9217 202.75 19.6212 202.053C19.3071 201.325 19.6247 200.5 20.6735 199.95L21.9308 202.867ZM26.6753 205.441C27.0186 206.236 26.6347 207.05 25.5859 207.6L24.2922 204.601C25.7998 204.404 26.3538 204.695 26.6756 205.441L26.6753 205.441Z" fill="#1E68F6"/>
</g>
<ellipse rx="17.7208" ry="17.7112" transform="matrix(0.918456 -0.395524 0.39605 0.918229 115.614 356.038)" fill="#34384C"/>
<g clip-path="url(#clip3)">
<ellipse rx="12.3656" ry="12.3589" transform="matrix(0.918456 -0.395524 0.39605 0.918229 115.401 356.581)" fill="#25292C"/>
<path d="M117.23 347.944L119.145 347.119L117.214 353.597C116.514 355.941 114.174 356.949 111.986 355.848L105.945 352.803L107.862 351.978L112.45 354.291C113.117 354.626 113.839 354.664 114.458 354.397C115.078 354.13 115.545 353.58 115.76 352.866L117.23 347.944Z" fill="white"/>
<path d="M113.548 365.229L111.632 366.054L113.577 359.536C114.277 357.191 116.617 356.183 118.804 357.284L124.882 360.348L122.967 361.172L118.34 358.841C117.673 358.507 116.952 358.469 116.332 358.735C115.713 359.002 115.245 359.552 115.03 360.267L113.548 365.229Z" fill="white"/>
</g>
<defs>
<linearGradient id="paint0_linear" x1="129.655" y1="23.9042" x2="148.408" y2="67.4513" gradientUnits="userSpaceOnUse">
<stop stop-color="#F9AA4B"/>
<stop offset="1" stop-color="#F7931A"/>
</linearGradient>
<clipPath id="clip0">
<rect width="34.513" height="34.4858" fill="white" transform="translate(506.441 476.718)"/>
</clipPath>
<clipPath id="clip1">
<rect width="47.4325" height="47.4068" fill="white" transform="matrix(0.918456 -0.395524 0.39605 0.918229 107.889 33.2898)"/>
</clipPath>
<clipPath id="clip2">
<rect width="24.7313" height="24.7179" fill="white" transform="matrix(0.918456 -0.395524 0.39605 0.918229 6.82617 197.743)"/>
</clipPath>
<clipPath id="clip3">
<rect width="24.7313" height="24.7179" fill="white" transform="matrix(0.918456 -0.395524 0.39605 0.918229 99.1494 350.123)"/>
</clipPath>
</defs>
</svg>
