<svg width="45" height="42" viewBox="0 0 45 42" fill="none" xmlns="http://www.w3.org/2000/svg">
<path d="M23.3919 18.6655C23.3709 20.3211 24.8673 21.2449 25.9946 21.7942C27.1527 22.3577 27.5417 22.7191 27.5371 23.2232C27.5285 23.9945 26.6133 24.3349 25.7569 24.3481C24.2628 24.3713 23.3941 23.9447 22.7034 23.6221L22.1652 26.1407C22.8581 26.46 24.1412 26.7384 25.4717 26.7507C28.5949 26.7507 30.6382 25.209 30.6493 22.8186C30.6615 19.785 26.4532 19.6171 26.4819 18.2611C26.4918 17.8499 26.8842 17.4112 27.7439 17.2996C28.1694 17.2433 29.3441 17.2001 30.6759 17.8134L31.1986 15.3767C30.4824 15.1159 29.5619 14.8662 28.4158 14.8662C25.4762 14.8662 23.4086 16.4289 23.3919 18.6655ZM36.2213 15.0761C35.651 15.0761 35.1704 15.4087 34.956 15.9192L30.4946 26.5717H33.6155L34.2366 24.8553H38.0503L38.4105 26.5717H41.1613L38.7609 15.0761H36.2213ZM36.658 18.1815L37.5586 22.4982H35.092L36.658 18.1815ZM19.608 15.0762L17.1479 26.5715H20.1219L22.5808 15.0759H19.608V15.0762ZM15.2084 15.0759L12.1129 22.9004L10.8608 16.2476C10.7139 15.5049 10.1336 15.0761 9.4893 15.0761H4.42917L4.3583 15.4099C5.39712 15.6353 6.5774 15.9989 7.29247 16.3879C7.73009 16.6255 7.85487 16.8333 7.99863 17.398L10.3703 26.5717H13.513L18.3314 15.0761H15.2084" fill="url(#paint0_linear)"/>
<defs>
<linearGradient id="paint0_linear" x1="21.2781" y1="26.9891" x2="21.6221" y2="14.7835" gradientUnits="userSpaceOnUse">
<stop stop-color="#222357"/>
<stop offset="1" stop-color="#254AA5"/>
</linearGradient>
</defs>
</svg>
